<?xml version="1.0" standalone="no"?>
<!DOCTYPE svg PUBLIC "-//W3C//DTD SVG 20010904//EN"
 "http://www.w3.org/TR/2001/REC-SVG-20010904/DTD/svg10.dtd">
<svg version="1.0" xmlns="http://www.w3.org/2000/svg"
 width="1280.000000pt" height="1056.000000pt" viewBox="0 0 1280.000000 1056.000000"
 preserveAspectRatio="xMidYMid meet">
<metadata>
Created by potrace 1.15, written by Peter Selinger 2001-2017
</metadata>
<g transform="translate(0.000000,1056.000000) scale(0.100000,-0.100000)"
fill="#ffffff" stroke="none">
<path d="M6950 10549 c-782 -79 -1408 -535 -1640 -1194 -48 -139 -99 -382
-100 -482 l0 -23 994 0 994 0 31 -26 c59 -49 65 -162 11 -216 l-28 -28 -3606
0 -3606 0 0 -98 c0 -122 15 -369 36 -572 42 -430 118 -803 260 -1292 5 -17
181 -18 3519 -18 3851 0 3610 -4 3856 59 661 167 1188 657 1399 1299 273 833
-24 1729 -745 2243 -232 166 -522 283 -825 334 -116 19 -420 27 -550 14z"/>
<path d="M10600 8243 c-716 -73 -1280 -435 -1561 -1001 -91 -184 -160 -432
-175 -625 l-7 -87 1013 0 1013 0 23 -21 c44 -41 43 -171 -1 -215 l-24 -24
-5231 0 c-2876 0 -5230 -2 -5230 -5 0 -2 22 -60 49 -127 246 -616 588 -1196
1025 -1735 l91 -112 4668 -1 c3217 0 4698 3 4765 11 456 49 849 233 1176 549
314 303 506 670 583 1115 24 138 24 470 -1 610 -73 427 -258 793 -547 1083
-324 325 -715 519 -1162 577 -106 13 -370 18 -467 8z"/>
<path d="M1890 3956 c0 -10 365 -343 485 -443 962 -801 2115 -1308 3345 -1472
391 -53 429 -54 1699 -60 l1194 -6 20 -26 c44 -59 38 -181 -10 -219 -25 -20
-39 -20 -1022 -20 l-997 0 8 -82 c51 -531 322 -983 768 -1282 108 -73 337
-185 460 -226 457 -152 939 -158 1364 -19 803 263 1354 1018 1358 1859 0 224
-18 366 -73 560 -100 349 -287 656 -550 904 -285 267 -609 429 -1026 513 -83
17 -275 18 -3555 21 -1908 1 -3468 0 -3468 -2z"/>
</g>
</svg>
